<?xml version="1.0" encoding="UTF-8"?>
<svg width="50px" height="50px" viewBox="0 0 50 50" version="1.1" xmlns="http://www.w3.org/2000/svg" xmlns:xlink="http://www.w3.org/1999/xlink">
    <title>Go Stream Video</title>
    <g id="Page-1" stroke="none" stroke-width="1" fill="none" fill-rule="evenodd">
        <g id="Go-Stream-Video">
            <rect id="Rectangle" fill="#323232" x="0" y="0" width="50" height="50" rx="25"></rect>
            <g id="play" transform="translate(8.400000, 8.400000)" fill-rule="nonzero">
                <g id="Group" transform="translate(18.400000, 6.200000)" fill="#FFE600">
                    <path d="M10.8849,5.3401 L1.5016,0.7599 C1.1429,0.574 0.7147,0.8345 0.7147,1.2384 L0.7147,10.3989 C0.7147,10.803 1.1429,11.0635 1.5016,10.8774 L10.8849,6.2972 C11.273,6.0961 11.273,5.5411 10.8849,5.3401 Z" id="Path"></path>
                    <path d="M1.257,11.623 C1.0377,11.623 0.8167,11.5629 0.6187,11.4426 C0.2514,11.2189 0.0319,10.8289 0.0319,10.399 L0.0319,1.2383 C0.0319,0.8082 0.2512,0.4182 0.6187,0.1947 C0.9856,-0.0284 1.434,-0.0439 1.8154,0.1534 L11.1843,4.7268 C11.1892,4.7292 11.1944,4.7314 11.199,4.7341 C11.606,4.9447 11.8586,5.3604 11.8586,5.8187 C11.8586,6.2769 11.606,6.6927 11.199,6.9033 L1.8011,11.491 C1.6317,11.5789 1.4451,11.623 1.257,11.623 Z M1.3973,1.4683 L1.3973,10.1689 L10.3093,5.8186 L1.3973,1.4683 Z" id="Shape"></path>
                </g>
                <path d="M6.144,12.8695 L6.144,31.0677 C6.144,32.0859 7.2228,32.7419 8.1268,32.2736 L31.7675,20.7338 C32.7454,20.2273 32.7454,18.8286 31.7675,18.3219 L8.1268,6.7822 C7.2228,6.3139 6.144,6.9699 6.144,7.9881" id="Path" fill="#323232"></path>
                <path d="M7.5047,33.112 C7.1384,33.112 6.771,33.0116 6.4416,32.8113 C5.8275,32.4379 5.4613,31.7863 5.4613,31.0676 L5.4613,12.8696 C5.4613,12.4926 5.767,12.1869 6.144,12.1869 C6.521,12.1869 6.8267,12.4926 6.8267,12.8696 L6.8267,31.0676 C6.8267,31.4106 7.0537,31.5856 7.151,31.645 C7.2486,31.704 7.5084,31.8254 7.8127,31.6677 L31.4683,20.1207 C31.682,20.0098 31.8183,19.7853 31.8183,19.528 C31.8183,19.2707 31.6819,19.0464 31.4536,18.9279 L7.8275,7.3956 C7.5085,7.2319 7.2495,7.3523 7.1511,7.411 C7.0538,7.4704 6.8268,7.6453 6.8268,7.9884 C6.8268,8.3654 6.5211,8.6711 6.1441,8.6711 C5.7671,8.6711 5.4613,8.3654 5.4613,7.9884 C5.4613,7.2697 5.8276,6.6181 6.4417,6.2447 C7.0551,5.8711 7.8021,5.8453 8.4407,6.1764 L32.0671,17.7087 C32.7614,18.068 33.1838,18.7624 33.1838,19.528 C33.1838,20.2936 32.7614,20.9881 32.0818,21.34 L8.4263,32.8869 C8.137,33.0369 7.8213,33.112 7.5047,33.112 Z" id="Path" fill="#FFFFFF"></path>
                <g id="Group" transform="translate(10.900000, 13.700000)" fill="#EA3457">
                    <path d="M10.8755,5.3494 L1.4922,0.7692 C1.1335,0.5833 0.7053,0.8438 0.7053,1.2477 L0.7053,10.4082 C0.7053,10.8123 1.1335,11.0728 1.4922,10.8867 L10.8755,6.3065 C11.2636,6.1054 11.2636,5.5504 10.8755,5.3494 Z" id="Path"></path>
                    <path d="M1.2477,11.6323 C1.0284,11.6323 0.8074,11.5722 0.6094,11.4519 C0.2421,11.2282 0.0226,10.8382 0.0226,10.4083 L0.0226,1.2476 C0.0226,0.8175 0.2419,0.4275 0.6094,0.204 C0.9767,-0.0194 1.424,-0.0343 1.8061,0.1627 L11.175,4.7361 C11.18,4.7385 11.1851,4.7407 11.1897,4.7434 C11.5967,4.954 11.8493,5.3697 11.8493,5.828 C11.8493,6.2863 11.5967,6.702 11.1897,6.9126 L1.7918,11.5003 C1.6223,11.5883 1.4358,11.6323 1.2477,11.6323 Z M1.388,1.4776 L1.388,10.1782 L10.3,5.8279 L1.388,1.4776 Z" id="Shape"></path>
                </g>
                <g id="Group" fill="#00E7FF">
                    <path d="M4.7787,4.8506 C4.6041,4.8506 4.4293,4.7839 4.2961,4.6506 L2.5894,2.9439 C2.3228,2.6773 2.3228,2.2452 2.5894,1.9786 C2.856,1.712 3.2881,1.712 3.5547,1.9786 L5.2614,3.6853 C5.528,3.9519 5.528,4.384 5.2614,4.6506 C5.128,4.7839 4.9534,4.8506 4.7787,4.8506 Z" id="Path"></path>
                    <path d="M8.192,4.1679 C7.815,4.1679 7.5093,3.8622 7.5093,3.4852 L7.5093,0.7546 C7.5093,0.3776 7.815,0.0719 8.192,0.0719 C8.569,0.0719 8.8747,0.3776 8.8747,0.7546 L8.8747,3.4853 C8.8747,3.8623 8.569,4.1679 8.192,4.1679 Z" id="Path"></path>
                    <path d="M3.4133,7.5813 L0.6827,7.5813 C0.3057,7.5813 0,7.2756 0,6.8986 C0,6.5216 0.3057,6.2159 0.6827,6.2159 L3.4134,6.2159 C3.7904,6.2159 4.0961,6.5216 4.0961,6.8986 C4.0961,7.2756 3.7903,7.5813 3.4133,7.5813 Z" id="Path"></path>
                </g>
            </g>
        </g>
    </g>
</svg>